<?xml version="1.0" standalone="no"?>
<!DOCTYPE svg PUBLIC "-//W3C//DTD SVG 20010904//EN"
 "http://www.w3.org/TR/2001/REC-SVG-20010904/DTD/svg10.dtd">
<svg version="1.0" xmlns="http://www.w3.org/2000/svg"
 width="1024.000000pt" height="1024.000000pt" viewBox="0 0 1024.000000 1024.000000"
 preserveAspectRatio="xMidYMid meet">

<g transform="translate(0.000000,1024.000000) scale(0.100000,-0.100000)"
fill="#000000" stroke="none">
<path d="M0 5375 c0 -4722 1 -4865 18 -4865 11 0 27 -8 36 -19 14 -15 16 -31
10 -100 -7 -81 -7 -81 -35 -81 l-29 0 0 -155 0 -155 5120 0 5120 0 0 5120 0
5120 -5120 0 -5120 0 0 -4865z m4520 4009 c69 -14 145 -31 170 -39 46 -14 201
-53 480 -120 178 -43 260 -73 527 -196 105 -49 195 -89 200 -89 5 0 34 24 64
53 55 53 136 98 254 140 50 17 84 21 200 21 l140 1 105 -41 c239 -94 316 -158
413 -349 77 -151 111 -343 88 -500 -31 -209 -111 -338 -287 -466 -46 -34 -84
-63 -84 -65 0 -3 20 -56 45 -120 25 -63 45 -119 45 -124 0 -5 13 -42 29 -82
16 -40 43 -121 60 -181 43 -148 73 -219 118 -274 46 -57 35 -45 158 -178 273
-294 382 -510 392 -781 3 -73 1 -142 -6 -174 -11 -49 -57 -168 -71 -180 -3 -3
-17 -24 -32 -47 -62 -96 -232 -254 -393 -365 -163 -114 -506 -297 -660 -353
-40 -15 -84 -38 -96 -51 l-22 -24 18 -62 c10 -35 34 -101 53 -148 80 -199 124
-259 224 -308 95 -46 161 -56 363 -57 228 0 241 3 552 151 39 19 79 34 87 34
9 0 62 22 119 49 149 71 368 156 477 184 52 14 111 32 130 40 55 24 139 46
219 57 40 6 77 13 81 15 5 3 28 9 52 14 50 10 158 40 381 105 177 52 213 55
251 25 21 -16 26 -29 26 -62 0 -45 7 -33 -180 -339 -101 -165 -135 -232 -125
-248 2 -4 103 -10 224 -14 121 -4 246 -11 278 -16 32 -5 119 -12 193 -16 155
-7 192 -15 220 -51 29 -37 25 -59 -22 -122 -24 -31 -60 -83 -82 -116 -38 -59
-226 -328 -290 -415 -34 -47 -151 -216 -262 -380 -36 -52 -87 -126 -115 -165
-27 -38 -80 -115 -117 -170 -37 -55 -70 -102 -73 -105 -3 -3 -30 -43 -59 -89
-52 -84 -92 -143 -155 -231 -48 -66 -77 -121 -71 -135 2 -7 54 -29 115 -49 61
-20 144 -51 184 -70 69 -31 103 -43 282 -95 51 -15 79 -30 104 -55 40 -41 36
-63 -16 -91 -82 -43 -171 -151 -262 -317 -40 -73 -41 -77 -23 -87 11 -6 39
-13 63 -17 95 -14 217 -48 285 -80 119 -56 219 -171 250 -286 29 -110 14 -188
-47 -247 -34 -32 -115 -75 -127 -67 -4 2 -43 -2 -87 -10 -68 -12 -707 -14
-4213 -13 -2953 0 -4130 4 -4126 11 5 8 -44 9 -167 5 -181 -7 -221 -2 -300 38
-76 39 -119 108 -119 193 0 131 103 294 227 359 64 33 187 69 303 87 75 12 75
12 72 41 -7 66 -139 298 -186 328 -14 9 -36 29 -50 44 -23 24 -24 29 -11 53
13 25 41 42 155 93 338 150 590 287 590 320 0 7 -19 23 -42 35 -151 79 -255
204 -319 382 -19 55 -23 84 -23 190 0 133 7 167 62 295 16 39 33 86 37 105 24
117 100 307 161 400 89 138 250 240 381 240 48 0 57 10 67 80 15 100 78 243
152 346 27 38 63 89 79 114 17 24 71 96 122 158 87 109 145 216 126 232 -4 4
-44 17 -88 30 -198 57 -270 89 -510 228 -197 115 -322 212 -444 347 -76 84
-107 130 -153 230 -72 154 -93 297 -64 431 36 164 123 403 171 469 13 17 34
51 48 76 53 97 51 93 109 168 138 174 190 268 229 416 10 39 25 95 34 125 9
30 23 81 31 113 13 55 80 247 109 314 18 40 11 45 -75 61 -67 13 -230 85 -230
102 0 6 -6 10 -14 10 -20 0 -144 137 -163 179 -46 106 -55 233 -28 397 21 133
55 212 157 364 139 207 318 354 492 405 142 41 344 14 476 -65 66 -39 176
-143 250 -237 23 -29 45 -53 48 -53 4 0 65 29 137 65 71 35 164 76 205 91 136
48 399 112 522 129 67 8 132 22 144 30 35 22 232 85 299 95 86 12 231 2 375
-26z m-4297 -9008 c11 -11 13 -36 9 -115 -2 -56 -2 -101 1 -101 3 0 27 11 52
24 l46 25 -25 16 c-22 15 -52 72 -42 82 7 7 70 -28 83 -46 34 -45 5 -109 -66
-146 -33 -17 -36 -17 -67 0 -41 22 -44 34 -44 178 0 113 1 117 19 107 11 -5
26 -16 34 -24z"/>
<path d="M2138 9145 c-117 -26 -185 -67 -290 -178 -54 -56 -98 -108 -98 -116
0 -8 -6 -11 -16 -7 -8 3 -13 2 -9 -3 3 -5 -2 -17 -11 -25 -8 -9 -12 -16 -8
-16 3 0 1 -6 -5 -13 -6 -8 -9 -16 -6 -19 3 -3 -1 -11 -10 -18 -8 -7 -15 -17
-15 -23 0 -26 -33 -96 -43 -90 -6 4 -8 -2 -5 -15 4 -12 3 -20 -2 -17 -15 9
-31 -46 -51 -175 -11 -68 -4 -150 11 -150 5 0 7 -8 3 -17 -3 -10 -3 -15 2 -11
4 4 30 -13 57 -38 68 -64 198 -118 198 -83 0 6 -13 31 -30 55 -46 68 -51 82
-61 150 -6 43 -5 80 2 112 6 26 13 57 14 69 4 30 28 83 37 83 4 0 20 26 34 58
27 56 72 124 87 130 4 2 7 10 7 17 0 14 73 84 90 86 6 1 15 3 20 4 6 1 15 3
21 4 5 0 7 6 3 13 -5 8 -2 9 10 5 9 -4 38 1 64 10 52 18 171 20 202 3 11 -6
20 -9 20 -6 0 5 139 -87 194 -129 46 -35 66 -28 66 22 -1 105 -89 236 -195
290 -100 52 -177 62 -287 38z"/>
<path d="M4193 9129 c22 -13 22 -29 -1 -29 -10 0 -28 -13 -40 -30 -24 -32 -50
-38 -70 -18 -8 8 -52 14 -120 16 -153 5 -421 -35 -599 -89 -34 -11 -67 -19
-73 -19 -10 0 -43 -14 -170 -75 -99 -46 -226 -155 -365 -311 -38 -43 -100
-110 -137 -148 -38 -38 -68 -73 -68 -77 0 -5 -8 -16 -19 -26 -26 -25 -131
-151 -131 -157 0 -5 -147 -216 -168 -241 -35 -43 -202 -422 -202 -459 0 -15
-8 -48 -19 -74 -28 -72 -49 -143 -56 -192 -4 -25 -18 -65 -30 -90 -13 -25 -26
-54 -29 -65 -12 -43 -121 -204 -188 -278 -26 -29 -48 -55 -48 -58 0 -4 -13
-21 -29 -40 -37 -42 -128 -217 -168 -324 -54 -142 -65 -337 -26 -474 50 -175
175 -321 372 -433 330 -187 696 -326 1001 -380 112 -19 161 -22 465 -22 l340
0 155 31 c242 50 315 57 441 43 129 -14 148 -10 141 28 -3 15 -11 36 -17 47
-16 26 -36 114 -31 140 3 17 10 20 57 18 52 -1 56 -3 108 -60 29 -32 81 -92
114 -133 104 -130 178 -194 267 -234 54 -24 82 -30 166 -34 66 -3 115 0 140 8
131 42 239 161 324 357 63 145 68 149 198 145 43 -1 64 -6 68 -16 3 -8 -12
-52 -34 -98 -21 -45 -43 -94 -47 -108 -4 -14 -11 -29 -15 -35 -4 -5 -11 -25
-15 -42 -6 -29 -4 -34 20 -43 33 -12 258 -13 386 0 53 5 131 19 175 31 43 12
86 23 94 24 30 4 76 17 105 30 17 7 68 26 115 41 47 14 103 35 125 44 22 10
58 24 80 31 22 6 42 15 45 18 7 10 76 41 89 41 6 0 11 4 11 8 0 5 17 18 38 30
39 21 118 79 231 167 88 69 185 192 233 295 38 82 39 87 35 175 -4 113 -43
248 -99 347 -51 91 -85 135 -168 219 -36 37 -77 84 -93 105 -15 22 -50 70 -78
109 -63 85 -99 142 -98 152 3 20 -3 34 -23 54 -13 12 -17 18 -9 14 11 -6 12
-2 7 21 -4 16 -12 34 -17 39 -7 6 -7 0 0 -17 8 -21 7 -26 -3 -22 -20 8 -62
102 -112 251 -14 43 -34 94 -44 113 -9 19 -23 53 -30 75 -7 22 -21 46 -31 53
-10 7 -42 61 -70 120 -28 59 -60 119 -70 133 -10 14 -27 49 -39 78 -11 28 -28
64 -39 79 -26 39 -132 221 -152 262 -16 32 -96 148 -144 210 -49 61 -271 271
-312 295 -18 11 -33 23 -33 27 0 4 -5 8 -11 8 -6 0 -32 15 -58 33 -73 53 -353
189 -456 222 -27 9 -57 19 -65 22 -28 12 -223 58 -305 72 -33 6 -125 17 -205
26 -80 9 -153 20 -163 25 -16 10 -214 30 -287 30 -29 -1 -32 -2 -17 -11z
m1862 -769 c3 -5 -1 -10 -10 -10 -9 0 -13 5 -10 10 3 6 8 10 10 10 2 0 7 -4
10 -10z m-2402 -467 c54 -21 87 -42 132 -85 32 -32 67 -61 77 -64 27 -8 23
-50 -8 -70 -23 -16 -30 -16 -87 -1 -34 8 -93 27 -132 41 -138 50 -312 26 -413
-57 -62 -51 -143 -166 -174 -247 -14 -36 -41 -123 -59 -195 -32 -120 -34 -140
-32 -270 2 -148 10 -200 34 -200 9 0 23 -28 38 -74 36 -113 47 -78 43 141 -3
200 12 320 53 433 14 38 25 71 25 72 0 2 6 3 13 3 10 0 61 70 76 104 6 14 58
57 97 82 19 11 32 23 29 26 -3 3 10 9 29 12 20 4 35 12 33 18 -2 11 17 18 79
25 45 5 128 -13 119 -27 -3 -4 9 -12 27 -15 47 -11 171 -124 199 -183 12 -26
25 -49 29 -52 3 -3 12 -21 20 -40 7 -19 18 -48 25 -65 38 -95 56 -240 54 -425
0 -61 2 -114 5 -118 4 -3 26 13 49 37 23 24 52 50 65 59 22 14 101 84 174 153
20 20 40 34 43 31 3 -3 5 0 5 6 0 5 23 21 50 33 28 12 50 26 50 31 0 4 9 8 19
8 11 0 23 5 26 11 4 6 13 8 21 5 8 -3 14 -1 14 4 0 19 31 10 54 -15 17 -18 34
-25 60 -25 31 0 36 -3 36 -22 0 -24 -95 -136 -141 -166 -31 -20 -199 -172
-243 -220 -16 -18 -65 -53 -108 -78 -44 -25 -82 -52 -85 -60 -3 -8 -9 -14 -14
-14 -10 0 -28 -14 -111 -87 -65 -57 -114 -114 -123 -144 -4 -11 -10 -17 -15
-14 -4 3 -6 -5 -2 -17 3 -11 1 -19 -4 -16 -11 7 -17 -28 -18 -108 0 -69 31
-134 84 -175 17 -13 43 -34 58 -47 47 -40 154 -89 247 -112 165 -41 335 -37
515 12 83 22 81 22 128 47 l33 17 -49 41 c-80 68 -108 155 -88 275 10 59 3 90
-29 124 -14 15 -24 32 -22 38 2 5 -5 18 -14 27 -10 10 -20 42 -25 75 -24 199
160 318 500 323 66 1 123 4 126 6 16 10 138 -20 172 -41 21 -13 42 -24 48 -24
5 0 10 -3 10 -7 0 -5 15 -24 33 -43 69 -74 82 -111 81 -220 0 -67 -31 -147
-74 -195 -10 -11 -20 -40 -23 -65 -12 -114 -43 -176 -134 -270 -40 -41 -69
-78 -65 -82 4 -4 43 -15 87 -25 94 -20 291 -23 380 -6 33 7 80 16 105 21 82
16 226 99 282 164 90 104 104 180 52 288 -50 103 -157 206 -311 298 -34 20
-180 152 -169 152 2 0 -33 37 -78 83 -70 70 -82 87 -84 120 -2 20 2 37 7 37 7
0 7 9 1 26 -14 35 -12 53 3 33 7 -9 28 -20 47 -24 32 -6 138 -59 150 -74 15
-18 72 -51 113 -65 71 -24 153 -68 242 -130 82 -58 115 -69 115 -38 0 59 -44
324 -67 397 -62 200 -97 283 -138 328 -31 33 -45 34 -72 5 -50 -55 -56 -116
-22 -216 21 -61 21 -62 1 -88 -17 -24 -26 -27 -81 -28 -48 -2 -65 2 -78 16
-13 14 -13 18 -2 18 8 1 2 8 -14 16 -15 8 -39 33 -53 55 -22 36 -29 40 -53 36
-51 -11 -62 41 -31 148 6 22 11 47 11 55 1 23 21 71 46 110 44 69 55 81 68 76
10 -3 12 0 8 12 -6 14 -4 15 9 5 8 -7 18 -9 22 -5 8 8 12 9 59 12 31 2 31 2 7
10 -50 16 64 11 121 -6 60 -18 140 -60 152 -81 5 -8 19 -18 33 -23 13 -5 30
-25 38 -45 8 -19 19 -35 25 -35 5 0 18 -25 27 -55 10 -30 20 -52 24 -50 4 2 5
-8 3 -23 -3 -17 -1 -23 4 -15 10 14 23 -18 42 -102 7 -27 23 -97 37 -155 15
-58 35 -143 45 -190 10 -47 23 -95 29 -107 28 -65 50 14 57 207 5 137 3 164
-15 230 -36 131 -41 145 -77 219 -19 39 -35 75 -35 79 0 4 -20 41 -45 81 -25
40 -45 76 -45 79 -1 10 -37 52 -44 52 -11 0 -44 38 -39 44 4 3 1 6 -6 6 -7 0
-24 14 -38 30 -38 46 -98 69 -153 61 -56 -9 -75 -19 -149 -81 -62 -52 -90 -61
-111 -35 -7 8 -26 15 -42 15 -19 0 -40 10 -59 29 -29 30 -37 51 -19 51 6 0 10
-5 10 -10 0 -16 61 -49 79 -43 9 4 44 32 77 64 34 32 88 70 120 86 52 24 71
27 159 28 91 0 105 -3 160 -30 80 -39 245 -176 245 -203 0 -5 7 -15 16 -22 8
-8 23 -30 33 -49 19 -41 28 -58 59 -118 12 -23 22 -59 22 -79 0 -21 3 -34 7
-30 9 9 50 -128 68 -229 16 -86 18 -257 6 -395 -5 -51 -4 -90 2 -97 6 -9 39
-13 99 -13 152 0 238 -19 326 -74 11 -6 10 -12 -3 -26 -10 -12 -45 -21 -108
-30 -50 -7 -96 -16 -102 -20 -5 -4 -26 -11 -45 -15 -19 -4 -39 -10 -45 -13 -5
-4 -59 -24 -120 -45 -60 -22 -127 -46 -149 -53 -49 -19 -122 -68 -130 -89 -3
-9 -6 -70 -6 -136 0 -195 -46 -302 -177 -416 -38 -32 -70 -60 -73 -63 -11 -11
-138 -69 -185 -85 -27 -9 -58 -21 -68 -26 -9 -5 -80 -12 -156 -16 -127 -5
-242 4 -378 32 -13 3 -33 -5 -52 -21 -25 -21 -31 -34 -31 -64 0 -21 5 -42 10
-45 6 -4 9 -28 6 -56 -2 -27 0 -49 5 -49 5 0 9 -7 9 -15 0 -8 9 -19 20 -25 34
-18 42 -55 25 -112 -16 -55 -76 -124 -100 -115 -7 3 -16 -1 -19 -9 -3 -8 -12
-14 -21 -14 -8 0 -15 -4 -15 -9 0 -4 -41 -14 -91 -21 -101 -15 -153 -7 -239
34 -46 23 -161 93 -170 105 -3 4 -21 18 -40 30 -63 42 -151 141 -148 164 4 29
90 49 175 41 62 -6 63 -6 73 22 6 15 10 54 9 87 l-2 59 -41 -6 c-23 -4 -61
-14 -86 -23 -31 -11 -93 -17 -200 -20 -141 -5 -165 -3 -275 22 -66 15 -127 33
-136 41 -8 8 -21 14 -28 14 -17 0 -147 67 -189 98 -57 42 -172 169 -172 190 0
5 -7 15 -15 22 -8 7 -24 42 -36 79 -18 57 -19 80 -13 178 6 112 6 112 -17 121
-63 24 -128 45 -164 55 -22 5 -49 13 -60 18 -34 13 -58 19 -115 24 -30 3 -86
11 -125 17 -38 5 -205 14 -370 19 -165 4 -327 12 -360 17 l-60 8 48 22 c27 12
54 22 60 22 7 0 6 4 -3 10 -11 7 -5 8 20 4 23 -4 30 -2 22 4 -30 21 167 82
305 94 8 1 10 62 7 233 -4 179 -1 257 11 341 17 115 33 183 47 199 4 5 8 15 8
23 0 8 16 48 35 89 19 41 35 77 35 80 0 14 113 175 147 209 100 102 182 148
313 176 111 23 200 17 293 -19z m1889 -1038 c3 -14 1 -25 -3 -25 -5 0 -9 11
-9 25 0 14 2 25 4 25 2 0 6 -11 8 -25z"/>
<path d="M3646 7310 c-2 -8 -9 -41 -15 -73 -16 -90 -56 -156 -121 -199 -30
-20 -72 -40 -92 -43 -23 -4 -38 -12 -38 -21 0 -8 -10 -14 -26 -14 -35 0 -81
-29 -88 -54 -21 -77 17 -297 60 -347 8 -9 47 -21 96 -28 46 -7 111 -20 145
-28 71 -17 66 -20 124 62 53 76 89 170 110 292 13 71 5 241 -12 258 -5 5 -9
20 -9 33 0 34 -46 108 -83 134 -18 12 -35 27 -39 32 -4 7 -9 5 -12 -4z"/>
<path d="M5040 6519 c-19 -6 -51 -14 -70 -18 -65 -15 -120 -43 -140 -71 -27
-38 -26 -42 17 -85 29 -29 34 -38 22 -46 -10 -6 -10 -9 -1 -9 6 0 21 -9 31
-19 17 -17 18 -25 9 -63 -6 -23 -21 -55 -34 -70 -39 -48 -40 -67 -2 -99 54
-47 95 -61 183 -62 111 -1 176 17 225 61 35 32 40 44 44 87 2 36 8 51 19 53
12 2 15 11 11 30 -4 20 2 35 24 58 36 37 49 98 32 149 -14 43 -73 80 -142 90
-27 3 -48 10 -48 14 0 12 -138 11 -180 0z"/>
<path d="M5034 5408 c-4 -7 -14 -55 -21 -107 -9 -69 -10 -98 -2 -108 15 -17
99 -16 123 2 26 19 38 89 19 112 -13 17 -14 16 -8 -7 l5 -25 -11 25 c-47 106
-83 143 -105 108z"/>
<path d="M6315 8970 c-65 -13 -87 -25 -141 -74 -54 -47 -84 -98 -84 -137 0
-21 3 -20 43 17 67 65 108 91 165 104 74 17 213 5 285 -24 57 -23 177 -120
177 -143 0 -7 4 -13 9 -13 13 0 31 -58 40 -127 16 -117 -27 -372 -85 -508 -41
-95 -47 -122 -30 -128 35 -14 153 90 196 173 50 97 72 274 51 410 -13 81 -70
212 -115 265 -14 17 -26 33 -26 38 0 4 -6 7 -12 7 -7 1 -31 14 -53 30 -77 57
-175 97 -264 109 -93 12 -99 12 -156 1z"/>
<path d="M2198 8857 c-10 -8 -18 -25 -18 -37 0 -13 -19 -49 -43 -79 -54 -71
-77 -107 -77 -123 -1 -7 -9 -31 -20 -53 -13 -26 -19 -62 -20 -102 0 -57 3 -66
32 -98 18 -19 43 -35 54 -35 21 0 144 108 144 127 0 4 45 55 100 112 69 72
100 112 100 128 0 25 -31 74 -65 105 -56 51 -155 80 -187 55z"/>
<path d="M6343 8814 c11 -12 97 -15 97 -4 0 5 -23 10 -52 10 -28 0 -48 -3 -45
-6z"/>
<path d="M6266 8801 c-3 -4 6 -6 19 -3 14 2 25 6 25 8 0 8 -39 4 -44 -5z"/>
<path d="M6305 8761 c-27 -7 -23 -8 30 -15 80 -9 185 -36 185 -47 0 -5 6 -9
14 -9 7 0 34 -18 59 -40 53 -47 61 -49 45 -15 -6 14 -14 25 -18 25 -4 0 -20
12 -36 26 -63 55 -112 77 -182 80 -37 1 -80 -1 -97 -5z"/>
<path d="M6671 8560 c0 -8 4 -22 9 -30 12 -18 12 -2 0 25 -6 13 -9 15 -9 5z"/>
<path d="M3975 4890 c-33 -4 -114 -20 -180 -34 -172 -38 -369 -49 -720 -42
-311 7 -346 3 -313 -30 11 -11 45 -19 105 -25 48 -5 133 -13 188 -19 55 -5
146 -9 203 -10 126 0 471 36 531 56 33 11 46 12 51 3 6 -8 9 -7 12 2 4 11 41
14 184 14 207 0 288 -9 312 -34 11 -12 34 -19 67 -20 28 0 61 -5 75 -10 14 -5
44 -14 67 -21 23 -7 44 -19 47 -26 3 -8 12 -14 20 -14 8 0 18 -4 21 -10 4 -7
-3 -7 -19 0 -14 5 -26 6 -26 1 0 -5 7 -12 16 -15 13 -5 14 -9 5 -20 -10 -12
-20 -12 -62 -1 -28 8 -57 11 -65 8 -8 -3 -14 1 -14 9 0 10 -9 13 -30 10 -18
-3 -30 0 -30 7 0 6 -4 11 -10 11 -5 0 -10 -9 -10 -20 0 -19 -7 -20 -120 -20
-95 0 -120 3 -120 14 0 16 -43 26 -115 26 -63 0 -85 -7 -85 -26 0 -10 12 -14
40 -14 34 0 40 -3 40 -21 0 -19 -4 -20 -56 -14 -50 5 -56 3 -61 -14 -4 -16
-13 -20 -44 -18 -21 1 -39 5 -39 9 0 4 -7 8 -16 8 -11 0 -15 -6 -11 -20 3 -14
0 -20 -11 -22 -10 0 3 -4 28 -8 l45 -7 -39 -1 c-46 -2 -41 -12 11 -23 26 -6
15 -6 -32 -2 -38 3 -162 9 -275 12 -113 4 -189 8 -169 9 20 1 49 8 64 16 15 8
33 12 41 9 7 -2 21 0 31 6 14 8 9 10 -28 11 -33 0 -49 -5 -53 -15 -4 -11 -20
-15 -58 -14 l-53 1 45 9 c25 5 46 13 48 19 2 5 20 10 40 10 21 0 44 5 52 10
11 7 2 10 -32 10 -41 0 -48 3 -48 20 0 11 -7 20 -15 20 -9 0 -24 8 -35 18 -20
18 -51 19 -267 9 -69 -4 -103 -19 -103 -45 0 -8 -120 -21 -245 -26 -30 -1 -42
-7 -73 -38 -9 -9 -30 -20 -45 -23 -16 -4 -35 -18 -44 -31 -8 -13 -24 -24 -34
-24 -11 0 -19 -6 -19 -13 0 -7 -18 -32 -40 -56 -22 -23 -40 -37 -40 -31 0 21
102 218 121 236 11 9 19 27 19 38 0 17 -4 14 -21 -14 -12 -19 -25 -37 -29 -40
-3 -3 -28 -39 -55 -80 -42 -66 -65 -96 -118 -160 -7 -8 -19 -28 -27 -43 -7
-15 -28 -37 -46 -47 -28 -18 -74 -97 -74 -129 0 -6 -4 -11 -8 -11 -5 0 -9 -6
-10 -12 0 -7 -8 -42 -17 -78 -29 -117 -32 -147 -24 -250 12 -142 49 -227 137
-321 122 -130 254 -169 450 -134 53 9 117 23 142 31 136 41 223 45 293 15 42
-18 47 -23 38 -40 -6 -10 -8 -21 -4 -24 11 -11 -26 -55 -72 -86 -25 -17 -48
-31 -50 -31 -3 0 -28 -11 -57 -24 -125 -57 -303 -83 -469 -68 -103 10 -126 16
-207 53 -51 23 -92 48 -92 55 0 8 -4 13 -10 12 -10 -3 -140 121 -140 134 0 4
-8 16 -17 26 -24 24 -56 81 -98 170 -19 39 -36 72 -38 72 -3 0 -17 -24 -31
-54 -34 -68 -42 -120 -62 -376 -20 -253 -13 -512 15 -611 25 -88 76 -201 86
-192 4 5 5 2 1 -4 -10 -18 90 -179 159 -257 68 -77 86 -83 260 -91 422 -17
662 -46 840 -99 75 -23 249 -57 460 -92 117 -19 328 -75 487 -130 70 -24 133
-44 140 -44 8 0 19 -5 25 -11 6 -6 37 -12 69 -14 33 -2 71 -6 85 -10 37 -9 81
16 110 62 13 20 31 47 39 58 8 12 29 43 45 70 69 114 147 157 310 170 168 14
294 -28 386 -127 32 -34 62 -57 68 -54 7 5 9 30 5 75 -7 77 18 181 63 259 19
34 22 46 13 58 -7 8 -17 14 -22 14 -6 0 -53 21 -106 47 -54 26 -101 46 -105
45 -5 -1 -20 4 -35 11 -66 33 -121 57 -172 74 -30 10 -57 20 -60 24 -8 8 -89
36 -155 53 -282 73 -233 67 -690 76 -231 5 -541 11 -690 14 -387 8 -443 13
-472 42 -25 26 -30 65 -10 86 13 13 17 21 17 36 0 5 9 18 20 29 11 12 34 52
52 90 18 37 48 90 67 116 18 27 69 121 113 210 44 89 84 170 89 179 16 30 10
44 -34 84 -23 21 -55 57 -70 79 -15 22 -33 49 -42 60 -8 11 -16 29 -18 40 -2
11 -8 29 -14 40 -5 11 -18 45 -28 75 -10 30 -21 65 -26 78 -34 88 18 369 80
431 9 9 25 28 36 41 68 86 175 125 386 140 197 14 248 11 334 -17 55 -18 79
-33 112 -68 37 -39 54 -49 140 -76 289 -89 378 -182 390 -405 l6 -101 146 -49
c253 -83 340 -119 591 -243 211 -104 323 -177 421 -274 87 -87 114 -104 135
-86 8 6 14 16 14 21 0 5 10 24 23 41 86 117 114 308 78 537 -5 36 -14 101 -20
145 -6 44 -18 112 -27 150 -8 39 -19 102 -24 140 -10 83 -18 120 -36 154 -9
16 -14 60 -14 113 0 58 -4 91 -13 100 -20 20 -28 48 -14 49 7 1 1 5 -13 9 -17
5 -19 8 -7 9 28 2 20 18 -13 25 -18 3 -30 12 -30 21 0 8 -4 15 -10 15 -5 0
-10 6 -10 14 0 13 -55 30 -100 31 -8 0 -16 8 -18 18 -3 15 0 18 18 12 16 -5
20 -4 15 5 -10 15 112 8 143 -9 25 -13 27 -22 10 -39 -10 -10 -8 -20 6 -47 18
-34 36 -46 36 -25 0 25 19 5 49 -52 19 -35 43 -76 55 -93 l20 -29 6 24 6 23
15 -24 c9 -13 33 -67 53 -119 20 -52 46 -116 58 -141 11 -26 17 -52 13 -58 -4
-7 -1 -18 5 -26 21 -25 79 -286 80 -355 0 -99 12 -200 22 -200 6 0 33 19 61
43 29 24 85 65 125 91 40 26 79 54 87 63 8 8 15 11 15 7 0 -4 12 6 28 21 15
15 41 34 57 41 33 14 61 43 117 121 43 60 38 71 -34 80 -24 3 -47 9 -53 13 -5
4 -24 11 -41 14 -42 9 -165 71 -157 79 3 4 -3 7 -15 7 -20 0 -27 10 -23 33 1
5 -3 6 -8 3 -5 -4 -22 5 -37 19 -15 14 -29 23 -31 21 -12 -12 -79 81 -125 174
-12 25 -24 47 -27 50 -3 3 -7 12 -9 20 -2 8 -11 33 -22 55 -35 77 -48 111 -74
197 -23 75 -38 98 -62 98 -3 0 -3 -8 0 -17 3 -10 2 -24 -3 -32 -7 -11 -12 -8
-25 11 -9 14 -27 30 -40 36 -14 6 -128 16 -255 23 -215 12 -232 11 -270 -6
-22 -9 -50 -28 -62 -41 -12 -13 -26 -24 -30 -24 -5 0 -32 -11 -61 -24 -129
-58 -281 -74 -438 -47 -91 15 -160 40 -260 92 -42 21 -84 39 -95 39 -10 0 -32
4 -49 9 -216 66 -385 89 -521 71z m1597 -132 c14 3 17 0 12 -12 -4 -11 -18
-16 -45 -16 -40 0 -48 7 -27 28 6 6 17 8 26 3 8 -5 23 -6 34 -3z m55 -4 c-3
-3 -12 -4 -19 -1 -8 3 -5 6 6 6 11 1 17 -2 13 -5z m92 -20 c2 -2 -9 -4 -25 -5
-16 0 -23 -3 -16 -6 22 -9 13 -31 -17 -41 -33 -12 -69 -5 -90 16 -12 12 -12
15 0 23 8 5 28 9 46 9 17 0 35 5 38 10 5 9 52 4 64 -6z m-1054 -84 c-3 -5 -12
-10 -18 -10 -7 0 -6 4 3 10 19 12 23 12 15 0z m728 -7 c-7 -2 -19 -2 -25 0 -7
3 -2 5 12 5 14 0 19 -2 13 -5z m-2086 -109 c-3 -3 -12 -4 -19 -1 -8 3 -5 6 6
6 11 1 17 -2 13 -5z m-60 -30 c-3 -3 -12 -4 -19 -1 -8 3 -5 6 6 6 11 1 17 -2
13 -5z m-92 -44 c-3 -5 -11 -10 -16 -10 -6 0 -7 5 -4 10 3 6 11 10 16 10 6 0
7 -4 4 -10z m1005 -52 c0 -13 -23 -5 -28 10 -2 7 2 10 12 6 9 -3 16 -11 16
-16z m-5 -2629 c39 -11 75 -21 80 -22 6 -2 15 -5 20 -8 6 -3 44 -17 84 -30 41
-13 67 -25 58 -27 -14 -3 -314 93 -326 104 -9 8 17 3 84 -17z"/>
<path d="M4298 4763 c7 -3 16 -2 19 1 4 3 -2 6 -13 5 -11 0 -14 -3 -6 -6z"/>
<path d="M2626 4718 c-16 -22 -15 -35 2 -24 9 5 24 46 17 46 -2 0 -11 -10 -19
-22z"/>
<path d="M3720 4655 c0 -8 -9 -15 -20 -15 -16 0 -20 -7 -20 -30 0 -23 4 -30
20 -30 11 0 20 -4 20 -10 0 -5 9 -10 20 -10 18 0 20 7 20 55 0 48 -2 55 -20
55 -11 0 -20 -7 -20 -15z"/>
<path d="M3600 4650 c0 -5 -9 -10 -20 -10 -11 0 -20 -7 -20 -15 0 -17 4 -18
38 -9 22 6 32 44 12 44 -5 0 -10 -4 -10 -10z"/>
<path d="M3480 4630 c0 -5 9 -10 20 -10 11 0 20 5 20 10 0 6 -9 10 -20 10 -11
0 -20 -4 -20 -10z"/>
<path d="M3792 4580 c0 -14 2 -19 5 -12 2 6 2 18 0 25 -3 6 -5 1 -5 -13z"/>
<path d="M8920 4579 c0 -8 -13 -10 -37 -6 -45 8 -98 -2 -69 -12 10 -4 -29 -18
-98 -36 -64 -16 -116 -33 -116 -37 0 -10 -45 -6 -56 4 -3 4 -16 -2 -28 -13
-14 -14 -30 -19 -50 -16 -41 6 -243 -55 -258 -77 -5 -7 -8 -6 -8 4 0 11 -3 11
-12 2 -7 -7 -20 -12 -29 -12 -10 0 -24 -6 -31 -13 -7 -8 -37 -20 -66 -26 -28
-7 -52 -17 -52 -22 0 -5 -7 -9 -15 -9 -8 0 -15 -4 -15 -8 0 -4 -29 -19 -64
-32 -36 -13 -63 -27 -60 -31 2 -4 -6 -9 -19 -13 -12 -3 -60 -26 -106 -51 -47
-25 -88 -45 -93 -45 -5 0 -26 -11 -46 -25 -35 -24 -36 -25 -12 -27 45 -2 74 3
150 27 41 13 125 33 185 45 61 11 144 28 185 36 126 25 308 45 460 50 177 7
212 15 231 51 8 16 19 33 26 38 14 12 51 73 59 98 4 9 10 17 13 17 4 0 18 21
30 48 12 26 27 55 33 66 7 14 6 21 -4 27 -18 12 -28 11 -28 -2z m-523 -145
c-3 -3 -12 -4 -19 -1 -8 3 -5 6 6 6 11 1 17 -2 13 -5z"/>
<path d="M3658 4563 c7 -3 16 -2 19 1 4 3 -2 6 -13 5 -11 0 -14 -3 -6 -6z"/>
<path d="M3568 4543 c12 -2 30 -2 40 0 9 3 -1 5 -23 4 -22 0 -30 -2 -17 -4z"/>
<path d="M3643 4533 c9 -2 25 -2 35 0 9 3 1 5 -18 5 -19 0 -27 -2 -17 -5z"/>
<path d="M3597 4240 c-70 -18 -124 -50 -169 -98 -30 -32 -88 -135 -88 -158 0
-8 -4 -13 -9 -10 -11 7 -22 -46 -16 -81 2 -16 7 -45 10 -66 3 -21 10 -35 14
-33 4 3 13 -12 20 -33 6 -21 23 -50 38 -65 21 -21 23 -25 7 -21 -15 5 -16 4
-4 -3 8 -6 19 -10 23 -11 4 0 15 -7 23 -15 28 -29 135 -86 180 -97 56 -14 157
-6 189 15 25 16 36 66 15 66 -5 0 -16 12 -24 28 -8 15 -23 36 -34 48 -18 19
-45 64 -98 163 -17 31 -24 60 -24 97 0 51 2 54 24 54 35 0 77 -18 106 -45 14
-12 35 -26 48 -30 12 -3 22 -11 22 -17 0 -5 24 -33 53 -62 57 -55 109 -125
102 -136 -3 -4 4 -15 14 -25 19 -16 20 -16 34 7 41 64 45 229 7 313 -10 22
-21 50 -25 63 -4 12 -10 20 -15 17 -5 -3 -13 10 -19 28 -16 46 -67 92 -124
111 -62 21 -191 19 -280 -4z"/>
<path d="M8710 4016 c-3 -3 -64 -10 -135 -16 -72 -5 -159 -13 -195 -16 -67 -6
-230 -29 -265 -38 -11 -2 -31 -5 -45 -5 -18 -1 -21 -4 -12 -10 10 -6 5 -9 -15
-10 -154 -9 -202 -14 -198 -21 3 -4 -3 -6 -13 -3 -10 2 -42 -5 -70 -16 -29
-12 -66 -21 -82 -21 -46 0 -117 -19 -205 -55 -44 -18 -91 -36 -105 -40 -62
-17 -81 -29 -95 -63 -8 -19 -15 -42 -15 -52 0 -27 -30 -82 -64 -118 -47 -51
-115 -82 -180 -82 -55 0 -124 23 -139 48 -4 6 -13 12 -18 12 -6 0 -27 14 -48
30 -37 30 -38 30 -75 15 -113 -47 -262 -173 -453 -382 -120 -130 -123 -138
-70 -174 17 -13 44 -36 59 -53 34 -36 77 -39 116 -8 15 12 44 31 64 42 20 11
57 33 81 50 25 16 50 30 56 30 6 0 11 3 11 8 0 4 21 19 47 32 26 14 75 42 110
63 34 20 65 37 69 37 3 0 18 8 32 18 30 21 172 82 277 119 39 13 84 31 102 39
17 8 38 14 45 14 8 0 25 9 38 20 13 11 34 20 48 20 14 0 33 6 41 13 9 7 36 20
61 27 25 7 50 17 55 20 6 4 33 13 60 20 28 7 70 23 95 35 52 26 175 62 275 80
39 7 111 22 160 33 50 11 128 25 175 31 47 7 114 16 150 21 36 5 124 14 195
20 72 6 177 15 235 21 58 5 143 9 190 9 78 0 288 16 335 25 11 2 41 7 67 10
36 6 57 17 90 49 49 47 73 88 65 109 -8 20 -82 34 -257 48 -162 12 -642 24
-650 15z"/>
<path d="M1708 3631 c-86 -79 -118 -159 -163 -407 -7 -39 -18 -81 -24 -92 -6
-11 -8 -28 -4 -38 4 -12 3 -15 -5 -10 -8 5 -12 -1 -12 -18 0 -14 -5 -28 -12
-32 -7 -5 -8 -3 -3 6 6 9 4 11 -4 6 -7 -5 -10 -10 -7 -13 3 -3 -1 -15 -9 -27
-8 -11 -15 -30 -15 -41 0 -12 -5 -26 -10 -31 -13 -13 3 -161 19 -177 8 -8 11
-6 11 8 0 12 10 4 30 -26 49 -74 133 -158 160 -161 l25 -3 0 123 c0 68 -3 126
-7 128 -5 3 -6 15 -3 27 10 43 11 317 2 317 -24 0 27 332 67 443 14 37 23 67
21 67 -2 0 -28 -22 -57 -49z m-31 -843 c-3 -8 -6 -5 -6 6 -1 11 2 17 5 13 3
-3 4 -12 1 -19z"/>
<path d="M4265 3580 c-11 -4 -30 -19 -43 -33 l-23 -24 28 -11 c15 -6 62 -18
103 -27 41 -9 109 -25 150 -36 41 -10 100 -24 130 -29 52 -9 214 -57 290 -85
86 -32 150 -54 220 -75 41 -13 112 -40 157 -61 45 -22 85 -39 89 -39 4 0 29
-13 56 -30 47 -29 98 -40 98 -20 0 10 -60 45 -72 42 -5 -1 -8 2 -8 7 0 5 -8
12 -18 15 -10 4 -27 14 -38 24 -10 10 -35 24 -54 32 -19 7 -53 25 -75 39 -22
14 -53 32 -70 40 -16 8 -46 21 -65 30 -19 9 -36 19 -38 23 -2 4 -19 10 -38 14
-18 3 -31 10 -28 15 3 5 -3 9 -14 9 -10 0 -22 3 -26 7 -3 4 -12 8 -19 9 -19 3
-125 39 -197 67 -36 14 -119 37 -185 52 -66 14 -149 33 -185 41 -72 16 -95 17
-125 4z"/>
<path d="M9039 3526 c-2 -2 -47 -7 -99 -10 -214 -13 -280 -19 -280 -26 0 -5
-24 -10 -52 -13 -57 -6 -205 -27 -363 -53 -55 -9 -107 -17 -115 -18 -9 -1 -20
-5 -26 -8 -5 -4 -40 -12 -77 -18 -37 -7 -65 -16 -62 -21 3 -4 -11 -11 -32 -14
-21 -4 -58 -13 -82 -21 -25 -8 -53 -14 -63 -14 -10 0 -26 -4 -36 -9 -9 -4 -96
-34 -192 -66 -96 -31 -182 -64 -191 -71 -8 -8 -22 -14 -30 -14 -8 0 -25 -9
-39 -20 -14 -11 -34 -20 -46 -20 -11 0 -53 -16 -93 -35 -39 -19 -76 -35 -81
-35 -13 0 -238 -111 -305 -150 -27 -16 -95 -53 -150 -81 -55 -29 -102 -55
-105 -58 -9 -11 -64 -47 -97 -64 -17 -9 -37 -22 -45 -29 -7 -7 -25 -21 -40
-31 -37 -23 -50 -74 -46 -182 l3 -90 101 -6 c89 -6 109 -10 163 -39 59 -31
113 -84 140 -138 7 -12 24 -57 38 -100 25 -73 26 -84 19 -216 l-6 -138 22 6
c28 8 46 12 118 27 30 6 94 24 142 40 48 16 94 29 102 29 9 0 48 11 89 24 40
13 103 27 140 31 47 5 68 12 72 24 4 9 8 138 11 286 4 315 -7 288 132 331 121
37 258 38 352 2 63 -24 153 -74 195 -107 18 -15 19 -15 7 1 -8 9 -10 27 -6 42
5 21 10 25 30 20 19 -5 24 -2 24 12 0 38 -48 71 -111 79 -23 3 -49 14 -58 24
-9 10 -27 25 -41 34 -31 19 -177 57 -222 57 -19 0 -95 -19 -169 -41 -117 -36
-148 -42 -241 -44 -69 -1 -108 2 -108 8 0 6 -3 8 -6 4 -12 -11 -64 23 -64 42
0 44 175 134 434 224 79 28 104 32 186 31 81 -1 111 -6 200 -36 149 -51 221
-79 332 -131 123 -58 126 -63 137 -245 5 -75 12 -145 16 -154 11 -28 51 -22
72 11 10 16 39 60 64 98 65 97 153 229 234 352 65 99 122 179 136 191 3 3 27
39 53 80 27 41 58 86 71 100 13 14 31 39 42 56 10 16 40 63 66 102 55 83 86
147 87 180 0 22 -2 22 -123 22 -68 0 -126 -2 -128 -4z"/>
<path d="M3584 3235 c-32 -49 -64 -103 -72 -119 -7 -16 -27 -50 -45 -75 -30
-42 -87 -139 -127 -217 l-16 -31 550 -6 c557 -7 745 -18 871 -50 33 -9 71 -18
85 -21 167 -35 274 -67 465 -141 39 -14 99 -37 135 -50 36 -12 118 -46 183
-75 68 -30 122 -49 127 -44 5 5 10 58 11 117 l2 108 -41 39 c-23 21 -48 41
-55 44 -6 3 -34 19 -62 36 -59 35 -218 112 -365 178 -58 26 -107 49 -110 53
-6 7 -19 12 -169 65 -68 24 -126 42 -130 39 -4 -2 -30 7 -57 20 -27 14 -59 25
-72 25 -13 0 -21 3 -19 8 3 4 -8 7 -25 8 -16 1 -39 6 -51 12 -12 6 -55 16 -94
22 -40 7 -73 15 -73 20 0 11 -37 20 -105 26 -33 3 -61 9 -63 14 -2 6 -15 7
-28 4 -13 -3 -30 -2 -37 3 -12 10 -176 28 -347 38 -52 3 -114 8 -137 10 -27 3
-45 0 -50 -8 -5 -8 -9 -3 -13 13 -6 23 -12 16 -66 -65z"/>
<path d="M6010 2773 c-10 -21 -15 -125 -20 -403 -6 -291 -11 -383 -22 -413
-16 -41 -38 -70 -38 -49 0 7 5 12 10 12 6 0 10 8 10 18 -1 16 -2 15 -15 -2 -8
-10 -16 -22 -17 -27 -2 -4 -15 -10 -30 -14 -24 -6 -28 -2 -57 58 -17 36 -31
72 -31 80 0 8 -14 20 -31 27 -29 12 -33 12 -50 -11 -10 -13 -19 -29 -19 -35 0
-6 -7 -17 -15 -24 -8 -7 -15 -21 -15 -30 0 -10 -4 -20 -9 -22 -21 -7 10 -96
48 -137 l38 -41 99 0 c91 0 104 2 140 26 22 14 53 47 69 73 l28 46 0 420 c0
436 -4 475 -41 475 -11 0 -25 -12 -32 -27z"/>
<path d="M1702 2740 c0 -14 2 -19 5 -12 2 6 2 18 0 25 -3 6 -5 1 -5 -13z"/>
<path d="M7709 2479 c-86 -7 -194 -43 -183 -60 3 -5 1 -9 -4 -9 -11 0 -11 5
-15 -222 -4 -192 -4 -197 17 -202 21 -5 21 -5 1 -20 -11 -8 -17 -17 -14 -20 3
-3 53 -2 110 4 57 5 181 17 274 25 94 9 178 18 187 21 15 4 17 21 17 122 0
155 -16 212 -76 270 -49 48 -126 86 -188 94 -22 3 -79 2 -126 -3z"/>
<path d="M6313 2100 l-32 -19 2 -123 c2 -112 0 -127 -20 -161 -13 -21 -23 -43
-23 -49 0 -7 -15 -24 -32 -39 l-33 -28 60 -1 c33 0 85 -7 115 -14 81 -19 107
-8 161 66 56 77 84 147 75 185 -4 15 -7 39 -7 52 1 14 -2 21 -5 18 -4 -4 -22
17 -40 46 -52 83 -147 112 -221 67z"/>
<path d="M4982 1843 c-55 -11 -117 -59 -150 -118 -34 -61 -35 -73 -5 -57 35
18 162 42 226 42 35 0 86 -7 113 -15 99 -30 126 -14 86 48 -53 79 -164 120
-270 100z"/>
<path d="M1350 1830 c-101 -10 -112 -15 -107 -54 8 -57 119 -268 170 -323 26
-28 39 -32 111 -42 154 -19 362 -32 761 -46 220 -8 418 -17 440 -19 22 -3 81
-10 130 -16 120 -15 600 -16 800 -1 185 13 619 57 718 72 46 8 67 15 67 25 0
8 -7 14 -15 14 -8 0 -15 3 -15 8 0 4 -17 8 -37 10 -20 1 -41 8 -45 15 -6 9 -8
9 -8 0 0 -13 -73 -6 -78 9 -2 4 -10 8 -18 8 -8 0 -14 4 -14 9 0 6 25 7 58 4
91 -9 56 5 -58 22 -95 15 -221 42 -445 94 -44 11 -98 23 -120 27 -22 4 -44 9
-50 11 -5 2 -71 14 -145 28 -74 14 -141 27 -148 30 -52 20 -356 57 -572 70
-140 8 -286 17 -325 20 -359 27 -515 35 -730 33 -137 0 -284 -4 -325 -8z"/>
<path d="M8615 1810 c-49 -5 -146 -16 -215 -25 -69 -8 -181 -19 -250 -25 -131
-10 -169 -15 -415 -49 -261 -37 -344 -52 -399 -71 -30 -10 -80 -23 -112 -30
-78 -15 -207 -57 -265 -87 -26 -12 -52 -23 -58 -23 -7 0 -22 -6 -34 -14 -30
-19 -159 -43 -282 -52 -55 -3 -103 -8 -106 -10 -3 -2 -46 3 -95 11 -49 8 -112
15 -141 15 -29 0 -53 5 -55 11 -2 6 -44 15 -93 20 -50 5 -115 15 -145 24 -30
8 -71 18 -90 22 -19 3 -40 9 -45 14 -18 14 -197 58 -211 52 -13 -5 -45 -54
-44 -68 0 -3 -9 -28 -20 -57 -11 -29 -16 -55 -12 -59 19 -16 531 -31 1002 -28
303 2 639 -2 840 -10 290 -12 403 -11 840 3 509 16 575 22 588 56 3 8 19 33
35 55 72 100 148 222 154 245 3 14 12 35 20 47 10 15 11 23 3 28 -18 11 -297
14 -395 5z"/>
<path d="M4890 1485 c-7 -8 -19 -15 -26 -15 -16 0 -154 -44 -180 -58 -11 -5
-46 -18 -78 -27 -97 -28 -51 -38 173 -38 211 0 370 18 437 50 73 35 54 53 -88
83 -112 24 -220 26 -238 5z"/>
<path d="M1020 1168 c-42 -7 -77 -19 -100 -36 -46 -33 -79 -73 -80 -94 0 -24
39 -32 75 -17 17 7 41 14 55 15 14 2 34 7 45 13 11 5 155 17 320 27 352 20
973 25 2995 23 740 -1 1964 -2 2720 -1 1559 0 2239 -11 2287 -36 18 -10 41 -9
82 4 11 4 10 8 -4 24 -10 11 -23 20 -30 20 -7 0 -20 9 -29 19 -10 11 -46 27
-82 37 -71 19 -218 17 -539 -8 -121 -9 -998 -12 -3595 -11 -3110 0 -3454 1
-3639 16 -222 18 -380 20 -481 5z"/>
<path d="M2278 753 c7 -3 16 -2 19 1 4 3 -2 6 -13 5 -11 0 -14 -3 -6 -6z"/>
<path d="M4258 753 c7 -3 16 -2 19 1 4 3 -2 6 -13 5 -11 0 -14 -3 -6 -6z"/>
<path d="M4353 753 c9 -2 23 -2 30 0 6 3 -1 5 -18 5 -16 0 -22 -2 -12 -5z"/>
<path d="M4978 753 c12 -2 30 -2 40 0 9 3 -1 5 -23 4 -22 0 -30 -2 -17 -4z"/>
<path d="M6978 753 c29 -2 74 -2 100 0 26 2 2 3 -53 3 -55 0 -76 -1 -47 -3z"/>
<path d="M7713 753 c9 -2 23 -2 30 0 6 3 -1 5 -18 5 -16 0 -22 -2 -12 -5z"/>
</g>
</svg>
