<?xml version="1.0" encoding="utf-8"?>
<!-- Generator: Adobe Illustrator 27.5.0, SVG Export Plug-In . SVG Version: 6.00 Build 0)  -->
<svg version="1.1" xmlns="http://www.w3.org/2000/svg" xmlns:xlink="http://www.w3.org/1999/xlink" x="0px" y="0px"
	 viewBox="0 0 500 500" style="enable-background:new 0 0 500 500;" xml:space="preserve">
<g id="BACKGROUND">
	<g>
		<g>
			<g>
				<g>
					<rect x="0.003" style="fill:#FADED1;" width="500" height="500"/>
				</g>
			</g>
		</g>
		<g>
			<g>
				<g>
					<rect x="0.003" y="402.51" style="fill:#FAAA85;" width="500" height="97.49"/>
				</g>
			</g>
		</g>
	</g>
</g>
<g id="OBJECTS">
	<text transform="matrix(1 0 0 1 87.7094 348.9693)" style="fill:#FAAA85; font-family:'Montserrat-Black'; font-size:67.1675px;">A</text>
	<g>
		<path style="fill:#FA9E73;" d="M471.164,421.677H37.517c-3.522,0-6.377-2.855-6.377-6.377l0,0c0-3.522,2.855-6.377,6.377-6.377
			h433.647c3.522,0,6.377,2.855,6.377,6.377l0,0C477.541,418.822,474.686,421.677,471.164,421.677z"/>
		<path style="fill:#FA9E73;" d="M404.802,437.285H251.155c-3.522,0-6.377-2.855-6.377-6.377l0,0c0-3.522,2.855-6.377,6.377-6.377
			h153.647c3.522,0,6.377,2.855,6.377,6.377l0,0C411.179,434.43,408.324,437.285,404.802,437.285z"/>
		<path style="fill:#FA9E73;" d="M460.296,447.109H334.167c-3.522,0-6.377-2.855-6.377-6.377l0,0c0-3.522,2.855-6.377,6.377-6.377
			h126.129c3.522,0,6.377,2.855,6.377,6.377l0,0C466.673,444.254,463.818,447.109,460.296,447.109z"/>
	</g>
	<path style="fill:#FA9E73;" d="M222.891,475.598H96.763c-3.522,0-6.377-2.855-6.377-6.377l0,0c0-3.522,2.855-6.377,6.377-6.377
		h126.129c3.522,0,6.377,2.855,6.377,6.377l0,0C229.268,472.742,226.413,475.598,222.891,475.598z"/>
	<g>
		<g>
			<path style="fill:#32376B;" d="M500.003,0v75.97c-7.33,14.55-17.453,34.568-31.333,43.761
				c-34.265,22.695-49.517,16.829-53.307,41.079c-3.79,24.25-5.31,18.18-24.25,40.16c-18.94,21.97,1.61,43.85-9.42,80.27
				l-245.9,0.49c0,0-13.25,0.61-13.5-51.25c-0.15-30.93-41.73-29.38-48.41-66.44c-1.78-9.87-9.13-22.04-26.19-27.04
				c-21.45-6.28-37.16-20.63-47.69-38.18V0H500.003z"/>
		</g>
		<g>
			<path style="fill:#2B305D;" d="M405.653,77.58c-30.96,32.63-0.98,69.93-32.25,91.84c-30.34,21.26-36.49,55.59-36.49,55.59
				s-132.34,43.2-136.64,9.23c-6.71-53.06-51.88-31.04-61.97-82.03c-10.09-50.99-24.5-40.64-72.79-72.41
				C31.593,57.47,28.263,20.2,29.283,0h410.2C441.043,23.25,432.853,48.91,405.653,77.58z"/>
		</g>
		<g>
			<path style="fill:#32376B;" d="M172.213,94.48c-2.14,2-4.72,3-7.72,3c-2.3,0-4.86-0.59-7.65-1.78
				c-28.33-12.02-43.17-70.5-47.54-95.7h1.02c2.08,12.19,6.35,30.88,13.31,48.98c9.47,24.66,21.09,40.49,33.6,45.8
				c6.02,2.56,10.83,2.21,14.3-1.03c12.07-11.28,6.81-55.94-2.92-93.75h1.03c3.74,14.57,6.71,29.73,8.36,43.08
				C180.333,61.88,181.223,86.06,172.213,94.48z"/>
		</g>
		<g>
			<path style="fill:#32376B;" d="M346.653,46.2c-20.17,27.92-17.66,48.9-13.1,86.97c0.26,2.21,0.53,4.47,0.81,6.79
				c1.6,13.67-0.93,24.64-7.55,32.61c-9.45,11.39-24.14,12.52-24.29,12.53l-26.46-1.7l0.4-0.7c10.27-17.86,17.2-40.65,19.03-62.53
				c1.52-18.27,0.17-44.79-14.88-67.38c-13.97-20.96-18.03-39.75-18.75-52.79h1c0.72,12.88,4.74,31.47,18.58,52.23
				c15.22,22.83,16.58,49.59,15.04,68.02c-1.81,21.74-8.63,44.38-18.75,62.25l24.79,1.6c0.08-0.01,14.35-1.11,23.53-12.17
				c6.43-7.75,8.89-18.47,7.31-31.85c-0.27-2.32-0.54-4.58-0.81-6.79c-4.58-38.32-7.11-59.44,13.29-87.68
				c8.77-12.15,8.41-29.49,4.97-45.61h1.01C355.253,16.3,355.573,33.84,346.653,46.2z"/>
		</g>
	</g>
	<g>
		<rect x="66.992" y="348.471" style="fill:#FFA661;" width="84.944" height="31.569"/>
		<g>
			<rect x="66.993" y="351.568" style="fill:#FFFFFF;" width="84.94" height="25.49"/>
		</g>
		<g>
			<rect x="66.993" y="356.128" style="fill:#FADED1;" width="72.13" height="1"/>
		</g>
		<g>
			<rect x="66.993" y="361.438" style="fill:#FADED1;" width="72.13" height="1"/>
		</g>
		<g>
			<rect x="66.993" y="366.758" style="fill:#FADED1;" width="72.13" height="1"/>
		</g>
		<g>
			<rect x="66.993" y="372.078" style="fill:#FADED1;" width="72.13" height="1"/>
		</g>
	</g>
	<g>
		<path style="fill:#2B305D;" d="M144.058,415.424H45.795c-3.779,0-6.842-3.063-6.842-6.841v-21.646
			c0-3.778,3.063-6.841,6.842-6.841h98.264V415.424z"/>
		<path style="fill:none;stroke:#48509C;stroke-miterlimit:10;" d="M47.675,409.424c-1.498,0-2.723-1.225-2.723-2.723v-17.885
			c0-1.497,1.225-2.722,2.722-2.722h90.384v23.329H47.675z"/>
	</g>
	<g>
		<g>
			<g>
				<path style="fill:#C96357;" d="M353.136,68.352c0.371,0.885,0.688,1.772,0.965,2.664c3.293,10.807-0.399,22.384-8.871,29.361
					c-0.242,0.199-0.475,0.394-0.734,0.578l-0.009,0.004c-1.843,1.423-3.905,2.634-6.156,3.577
					c-8.835,3.703-18.502,2.473-25.937-2.434c-0.314-0.205-0.631-0.419-0.934-0.65c-4.003-2.876-7.273-6.851-9.318-11.73
					c-1.863-4.445-2.474-9.112-1.986-13.588c0,0,0,0-0.004-0.009c1.034-9.693,7.18-18.546,16.808-22.582
					c0.443-0.186,0.88-0.358,1.325-0.512c0.327-0.126,0.652-0.23,0.977-0.333c0.046-0.019,0.087-0.026,0.133-0.045
					c0.142-0.049,0.279-0.084,0.425-0.124c0.732-0.22,1.466-0.409,2.207-0.556c0.118-0.028,0.232-0.043,0.35-0.071
					c0.259-0.054,0.509-0.105,0.776-0.141c0.617-0.107,1.245-0.186,1.868-0.251c0.451-0.037,0.901-0.074,1.351-0.089
					c0.445-0.024,0.898-0.03,1.355-0.026c0.444-0.002,0.892,0.006,1.338,0.036c0.898,0.047,1.78,0.132,2.662,0.272
					c0.391,0.053,0.79,0.125,1.179,0.2c0.482,0.091,0.96,0.194,1.426,0.324c0.433,0.101,0.86,0.214,1.285,0.35
					c0.422,0.127,0.838,0.267,1.258,0.416c0.417,0.14,0.831,0.302,1.237,0.468c0.406,0.166,0.815,0.341,1.22,0.53
					c2.356,1.094,4.56,2.524,6.533,4.256c0.194,0.179,0.398,0.354,0.596,0.542c0.194,0.179,0.389,0.358,0.577,0.55
					c0.972,0.948,1.867,1.972,2.695,3.067c0.201,0.274,0.399,0.538,0.582,0.819c0.103,0.141,0.196,0.286,0.302,0.437
					c0.118,0.178,0.24,0.366,0.349,0.548c0.154,0.239,0.299,0.482,0.448,0.734c0.154,0.239,0.294,0.495,0.43,0.741
					c0.059,0.116,0.124,0.219,0.18,0.326c0.1,0.186,0.203,0.381,0.284,0.575c0.111,0.214,0.226,0.436,0.332,0.663
					C352.814,67.609,352.978,67.974,353.136,68.352z"/>
			</g>
			<g>
				<path style="fill:#E16F61;" d="M353.136,68.352c0.371,0.885,0.688,1.772,0.965,2.664c-0.961,9.142-6.481,17.549-15.182,21.857
					c-0.278,0.138-0.547,0.273-0.842,0.396c-0.251,0.127-0.509,0.235-0.776,0.347c-5.635,2.362-11.602,2.715-17.116,1.383
					c-0.336-0.076-0.662-0.156-1-0.264c-7.854-2.184-14.666-7.83-18.064-15.937c-0.367-0.876-0.688-1.772-0.965-2.664
					c0,0,0,0-0.004-0.009c1.034-9.693,7.18-18.546,16.808-22.582c0.443-0.186,0.88-0.358,1.325-0.512
					c0.327-0.126,0.652-0.23,0.977-0.333c0.046-0.019,0.087-0.026,0.133-0.045c0.142-0.049,0.279-0.084,0.425-0.124
					c0.732-0.22,1.466-0.409,2.207-0.556c0.118-0.028,0.232-0.043,0.35-0.071c0.259-0.054,0.509-0.105,0.776-0.141
					c0.617-0.107,1.245-0.186,1.868-0.251c0.451-0.037,0.901-0.074,1.351-0.089c0.445-0.024,0.898-0.03,1.355-0.026
					c0.444-0.002,0.892,0.006,1.338,0.036c0.898,0.047,1.78,0.132,2.662,0.272c0.391,0.053,0.79,0.125,1.179,0.2
					c0.482,0.091,0.96,0.194,1.426,0.324c0.433,0.101,0.86,0.214,1.285,0.35c0.422,0.127,0.838,0.267,1.258,0.416
					c0.417,0.14,0.831,0.302,1.237,0.468c0.406,0.166,0.815,0.341,1.22,0.53c2.356,1.094,4.56,2.524,6.533,4.256
					c0.194,0.179,0.398,0.354,0.596,0.542c0.194,0.179,0.389,0.358,0.577,0.55c0.972,0.948,1.867,1.972,2.695,3.067
					c0.201,0.274,0.399,0.538,0.582,0.819c0.103,0.141,0.196,0.286,0.302,0.437c0.118,0.178,0.24,0.366,0.349,0.548
					c0.154,0.239,0.299,0.482,0.448,0.734c0.154,0.239,0.294,0.495,0.43,0.741c0.059,0.116,0.124,0.219,0.18,0.326
					c0.1,0.186,0.203,0.381,0.284,0.575c0.111,0.214,0.226,0.436,0.332,0.663C352.814,67.609,352.978,67.974,353.136,68.352z"/>
			</g>
			<g>
				<path style="fill:#C96357;" d="M325.022,51.51c-11.218,9.299-8.594,17.914-5.85,26.945c0.857,2.796,1.739,5.701,2.218,8.655
					c0.472,2.86,0.062,5.504-1.205,7.889c-0.272,0.515-0.583,1.014-0.934,1.497c-1.753,2.415-4.26,4.246-6.856,5.606
					c-0.314-0.205-0.631-0.419-0.934-0.65c2.658-1.342,5.243-3.141,6.982-5.539c0.272-0.385,0.522-0.772,0.742-1.178
					c1.252-2.238,1.666-4.743,1.221-7.462c-0.474-2.891-1.349-5.756-2.186-8.528c-2.756-9.059-5.399-17.721,4.934-26.984
					C323.77,51.655,324.399,51.576,325.022,51.51z"/>
			</g>
			<g>
				<path style="fill:#C96357;" d="M350.315,63.224c-4.612,2.681-9.057,7.081-11.551,14.274c-2.238,6.457-1.66,11.484,0.155,15.375
					c1.535,3.249,3.949,5.696,6.311,7.504c-0.242,0.199-0.475,0.394-0.734,0.578l-0.009,0.004c-2.916-2.302-5.057-4.874-6.41-7.69
					c-2.268-4.688-2.352-10.063-0.263-16.099c2.577-7.434,7.148-11.973,11.92-14.765C349.935,62.679,350.132,62.943,350.315,63.224z
					"/>
			</g>
		</g>
		<g>
			<path style="fill:#424A8F;" d="M351.142,62c3.897-1.5,7.822-2.936,11.796-4.248c3.973-1.319,7.974-2.564,12.07-3.602
				c2.052-0.511,4.127-0.954,6.28-1.259c1.084-0.142,2.174-0.262,3.379-0.228c0.601,0.018,1.238,0.068,2.01,0.311
				c0.194,0.065,0.389,0.133,0.625,0.271c0.113,0.065,0.217,0.118,0.333,0.201c0.123,0.097,0.243,0.202,0.357,0.312
				c0.224,0.198,0.447,0.566,0.583,0.889c0.135,0.357,0.18,0.72,0.169,1.039c-0.03,0.646-0.221,1.066-0.393,1.429
				c-0.181,0.369-0.375,0.644-0.571,0.918c-0.394,0.528-0.8,0.956-1.211,1.362c-0.823,0.807-1.668,1.501-2.526,2.166
				c-1.716,1.321-3.478,2.507-5.26,3.649c-7.129,4.549-14.599,8.343-22.106,12.041c-7.521,3.668-15.141,7.111-22.83,10.388
				c-7.709,3.23-15.5,6.266-23.371,9.1c-3.937,1.415-7.896,2.772-11.887,4.051c-3.989,1.286-8.015,2.474-12.113,3.477
				c-2.048,0.505-4.113,0.969-6.217,1.346c-2.122,0.356-4.21,0.712-6.613,0.61c-0.618-0.05-1.244-0.096-2.047-0.402
				c-0.383-0.151-0.89-0.406-1.331-0.959c-0.464-0.564-0.599-1.394-0.51-1.974c0.212-1.107,0.671-1.633,1.054-2.151
				c0.403-0.49,0.815-0.92,1.234-1.302c1.677-1.529,3.426-2.736,5.207-3.902c3.576-2.288,7.254-4.302,10.965-6.244
				c3.71-1.943,7.473-3.762,11.268-5.506l0.884,1.794c-7.314,3.911-14.676,7.837-21.419,12.491c-1.67,1.157-3.328,2.372-4.696,3.688
				c-0.344,0.326-0.641,0.662-0.892,0.98c-0.25,0.296-0.391,0.67-0.358,0.597c0.041-0.067-0.013-0.346-0.142-0.502
				c-0.115-0.148-0.159-0.121-0.055-0.095c0.172,0.067,0.598,0.129,1.014,0.141c1.767,0.043,3.819-0.31,5.783-0.7
				c1.985-0.405,3.975-0.9,5.957-1.439c7.922-2.213,15.795-4.833,23.567-7.702c7.78-2.862,15.479-5.958,23.118-9.193
				c7.656-3.194,15.244-6.554,22.72-10.129c7.467-3.579,14.853-7.373,21.899-11.576c1.748-1.064,3.469-2.168,5.08-3.351
				c0.801-0.591,1.579-1.207,2.258-1.843c0.337-0.316,0.653-0.642,0.889-0.945c0.238-0.267,0.366-0.653,0.322-0.45
				c-0.017,0.109,0.09,0.444,0.205,0.521c0.017,0.023,0.041,0.04,0.068,0.05c0.012,0.007-0.003,0.005-0.003,0.005
				c0.015-0.004-0.035-0.022-0.089-0.039c-0.217-0.076-0.626-0.153-1.064-0.168c-0.876-0.049-1.868,0.025-2.849,0.134
				c-1.977,0.227-3.987,0.623-5.991,1.047c-8.039,1.731-15.977,4.25-23.881,6.783L351.142,62z"/>
		</g>
	</g>
	<g>
		<path style="fill:#FFFFFF;" d="M310.189,149.083c-2.018,0.872-2.94,1.795-3.812,3.813c-0.169,0.39-0.715,0.39-0.883,0
			c-0.872-2.018-1.795-2.94-3.813-3.813c-0.39-0.168-0.39-0.714,0-0.883c2.018-0.872,2.94-1.795,3.813-3.813
			c0.168-0.39,0.714-0.39,0.883,0c0.872,2.018,1.794,2.941,3.812,3.813C310.578,148.368,310.578,148.914,310.189,149.083z"/>
		<path style="fill:#FFFFFF;" d="M83.176,33.433c-2.018,0.872-2.941,1.795-3.813,3.813c-0.168,0.39-0.714,0.39-0.883,0
			c-0.872-2.018-1.795-2.94-3.813-3.813c-0.39-0.168-0.39-0.714,0-0.883c2.018-0.872,2.941-1.795,3.813-3.813
			c0.168-0.39,0.714-0.39,0.883,0c0.872,2.018,1.795,2.941,3.813,3.813C83.566,32.719,83.566,33.265,83.176,33.433z"/>
		<path style="fill:#FFFFFF;" d="M396.447,28.793c-2.018,0.872-2.94,1.795-3.813,3.813c-0.168,0.39-0.714,0.39-0.883,0
			c-0.872-2.018-1.795-2.941-3.813-3.813c-0.39-0.168-0.39-0.714,0-0.883c2.018-0.872,2.94-1.795,3.813-3.813
			c0.168-0.39,0.714-0.39,0.883,0c0.872,2.018,1.795,2.941,3.813,3.813C396.837,28.078,396.837,28.624,396.447,28.793z"/>
		<path style="fill:#FFFFFF;" d="M447.314,68.934c-1.313,0.568-1.914,1.168-2.481,2.481c-0.11,0.254-0.465,0.254-0.574,0
			c-0.568-1.313-1.168-1.914-2.481-2.481c-0.254-0.11-0.254-0.465,0-0.575c1.313-0.567,1.914-1.168,2.481-2.481
			c0.11-0.254,0.465-0.254,0.574,0c0.568,1.313,1.168,1.914,2.481,2.481C447.568,68.469,447.568,68.824,447.314,68.934z"/>
		<path style="fill:#FFFFFF;" d="M64.293,53.313c-1.313,0.568-1.914,1.168-2.481,2.481c-0.11,0.254-0.465,0.254-0.575,0
			c-0.567-1.313-1.168-1.914-2.481-2.481c-0.254-0.11-0.254-0.465,0-0.574c1.313-0.568,1.914-1.168,2.481-2.481
			c0.11-0.254,0.465-0.254,0.575,0c0.568,1.313,1.168,1.914,2.481,2.481C64.547,52.848,64.547,53.203,64.293,53.313z"/>
		<path style="fill:#FFFFFF;" d="M234.676,45.664c0,0.919-0.745,1.664-1.664,1.664c-0.919,0-1.664-0.745-1.664-1.664
			c0-0.919,0.745-1.664,1.664-1.664C233.931,44,234.676,44.745,234.676,45.664z"/>
		<circle style="fill:#FFFFFF;" cx="250.994" cy="64.249" r="1.294"/>
		<circle style="fill:#FFFFFF;" cx="461.737" cy="42.389" r="0.924"/>
		<path style="fill:#FFFFFF;" d="M383.669,124.049c0,0.919-0.745,1.664-1.664,1.664c-0.919,0-1.664-0.745-1.664-1.664
			c0-0.919,0.745-1.664,1.664-1.664C382.925,122.386,383.669,123.131,383.669,124.049z"/>
		<path style="fill:#FFFFFF;" d="M101.6,133.218c0,0.613-0.497,1.109-1.109,1.109c-0.613,0-1.109-0.497-1.109-1.109
			c0-0.613,0.497-1.109,1.109-1.109C101.103,132.109,101.6,132.605,101.6,133.218z"/>
	</g>
	<g>
		<path style="fill:#424A8F;" d="M149.202,58.228c0,0.909-0.056,1.807-0.168,2.694c-1.324,11.023-10.709,19.566-22.091,19.566
			c-12.28,0-22.248-9.968-22.248-22.26c0-3.805,0.954-7.375,2.638-10.507c3.76-6.993,11.135-11.742,19.61-11.742
			C139.234,35.979,149.202,45.947,149.202,58.228z"/>
		<g>
			<path style="fill:#48509C;" d="M149.202,58.228c0,0.909-0.056,1.807-0.168,2.694c-3.76,6.993-11.135,11.742-19.622,11.742
				c-12.28,0-22.248-9.968-22.248-22.248c0-0.909,0.056-1.807,0.168-2.694c3.76-6.993,11.135-11.742,19.61-11.742
				c8.509,0,15.917,4.782,19.655,11.809c0.247,0.46,0.483,0.943,0.685,1.426h0.011c0.673,1.515,1.19,3.132,1.504,4.804
				c0.09,0.438,0.157,0.887,0.213,1.336C149.135,56.297,149.202,57.251,149.202,58.228z"/>
		</g>
		<path style="fill:#48509C;stroke:#424A8F;stroke-miterlimit:10;" d="M127.837,48.264c0,2.488-1.569,4.506-3.504,4.506
			c-1.935,0-3.504-2.017-3.504-4.506s1.569-4.506,3.504-4.506C126.268,43.758,127.837,45.776,127.837,48.264z"/>
		<g>
			<path style="fill:#424A8F;" d="M148.798,54.019c-0.875,1.033-2.492,1.729-4.344,1.729c-2.795,0-5.063-1.594-5.063-3.57
				c0-1.965,2.268-3.57,5.063-3.57c1.044,0,2.021,0.225,2.829,0.606c-0.202-0.483-0.438-0.965-0.685-1.426
				c-0.662-0.202-1.392-0.303-2.144-0.303c-3.412,0-6.185,2.11-6.185,4.692c0,2.593,2.773,4.692,6.185,4.692
				c1.807,0,3.435-0.584,4.557-1.515C148.955,54.905,148.888,54.456,148.798,54.019z"/>
		</g>
		<path style="fill:none;stroke:#424A8F;stroke-miterlimit:10;" d="M125.835,70.292c0,2.488-2.129,4.506-4.756,4.506
			c-2.627,0-4.756-2.017-4.756-4.506c0-2.488,2.129-4.506,4.756-4.506C123.706,65.786,125.835,67.803,125.835,70.292z"/>
	</g>
	<g>
		<rect x="169.621" y="175.191" style="fill:#FFFFFF;" width="173.722" height="128.482"/>
		<line style="fill:#FFFFFF;stroke:#B6B7D4;stroke-miterlimit:10;" x1="193.071" y1="196.037" x2="319.077" y2="196.037"/>
		<line style="fill:#FFFFFF;stroke:#B6B7D4;stroke-miterlimit:10;" x1="193.071" y1="210.952" x2="319.077" y2="210.952"/>
		<line style="fill:#FFFFFF;stroke:#B6B7D4;stroke-miterlimit:10;" x1="193.071" y1="225.867" x2="319.077" y2="225.867"/>
		<line style="fill:#FFFFFF;stroke:#B6B7D4;stroke-miterlimit:10;" x1="193.071" y1="240.782" x2="319.077" y2="240.782"/>
		<line style="fill:#FFFFFF;stroke:#B6B7D4;stroke-miterlimit:10;" x1="193.071" y1="255.697" x2="319.077" y2="255.697"/>
	</g>
	<g>
		<polygon style="fill:#2B305D;" points="389.923,419.824 389.923,433.794 279.913,433.794 263.863,427.274 279.913,419.824 		"/>
		<polygon style="fill:#FADED1;" points="280.333,419.824 280.333,433.794 279.913,433.794 269.023,429.374 263.863,427.274 
			269.023,424.874 279.913,419.824 		"/>
		<polygon style="fill:#2B305D;" points="269.023,424.874 269.023,429.374 263.863,427.274 		"/>
		<rect x="280.382" y="424.217" style="fill:#3A407D;" width="113.807" height="5.471"/>
	</g>
	<g>
		<g>
			<path style="fill:#FFCAA1;" d="M428.128,254.293c0,0-0.917,7.338-7.207,19.263c-5.466,10.363,7.601,21.36,7.601,21.36
				s10.904-7.205,9.435-20.181C436.487,261.76,428.128,254.293,428.128,254.293z"/>
			<path style="fill:#FFA661;" d="M432.268,284.521c0,5.112-1.554,9.255-3.471,9.255c-1.917,0-3.471-4.144-3.471-9.255
				c0-5.111,1.554-9.255,3.471-9.255C430.714,275.266,432.268,279.41,432.268,284.521z"/>
			<line style="fill:none;stroke:#2B305D;stroke-miterlimit:10;" x1="428.781" y1="288.49" x2="428.781" y2="302.911"/>
		</g>
		<rect x="395.164" y="300.038" style="fill:#FABDA0;" width="69.876" height="115.946"/>
		<rect x="395.164" y="300.038" style="fill:#FAC7AF;" width="54.496" height="115.946"/>
	</g>
	<g>
		<path style="fill:#FFCAA1;" d="M243.811,197.567c-22.076-5.853-31.331-29.16-31.331-29.16c2.009-1.756,4.035-3.221,6.05-4.454
			c6.373-3.88,12.582-5.359,17.273-5.863c4.89-0.522,8.119,0.021,8.119,0.021C251.573,184.623,243.811,197.567,243.811,197.567z"/>
		<path style="fill:#FFA661;" d="M237.484,184.043c-9.451-4.63-16.33-15.439-18.954-20.089c6.373-3.88,12.582-5.359,17.273-5.863
			C240.762,172.284,237.484,184.043,237.484,184.043z"/>
		<g>
			<path style="fill:#9C9DB5;" d="M243.921,158.112c-6.009-0.341-11.461,0.639-16.064,2.126c-0.154,0.048-0.318,0.093-0.476,0.161
				c-0.154,0.048-0.318,0.093-0.476,0.16c-8.906,3.061-14.426,7.848-14.426,7.848c-14.578-27.015-20.477-46.109-22.333-59.285
				c-2.735-19.364,3.277-25.906,3.277-25.906c8.209,1.137,15.952,8.103,22.808,17.36
				C232.652,122.756,243.921,158.112,243.921,158.112z"/>
		</g>
		<path style="fill:#48509C;" d="M214.191,186.94c-1.576,0.592-2.976,1.131-4.155,1.597c-2.511-3.314-10.621-14.161-12.037-17.61
			c-1.68-4.102,6.901-17.92,6.901-17.92l7.58,15.401L214.191,186.94z"/>
		<path style="fill:#48509C;" d="M261.393,169.933c-1.901,0.674-3.935,1.389-6.06,2.147l-11.412-13.968l-6.008-16.25
			c0,0,14.169,3.312,17.596,8.263C257.906,153.587,260.223,163.998,261.393,169.933z"/>
		<g>
			<path style="fill:#B6B7D4;" d="M227.858,160.238c-0.154,0.048-0.318,0.093-0.476,0.161c-0.154,0.048-0.318,0.093-0.476,0.16
				l-28.11-62.792l0.456-0.206l0.456-0.206L227.858,160.238z"/>
		</g>
		<path style="fill:#48509C;" d="M216.232,100.576c-10.864-3.349-22.435,3.412-26.085,8.546
			c-2.735-19.364,3.277-25.906,3.277-25.906C201.633,84.354,209.376,91.319,216.232,100.576z"/>
		<path style="fill:#48509C;" d="M222.661,128.409c-1.28,5.76-6.987,9.392-12.747,8.113c-5.76-1.28-9.392-6.987-8.113-12.747
			c1.28-5.76,6.987-9.393,12.747-8.113S223.941,122.649,222.661,128.409z"/>
		<path style="fill:#2B305D;" d="M210.502,133.874c-4.291-0.953-7.007-5.22-6.053-9.512c0.954-4.291,5.22-7.006,9.512-6.053
			c4.291,0.953,7.007,5.22,6.054,9.511C219.06,132.112,214.793,134.827,210.502,133.874z"/>
	</g>
	<g>
		<path style="fill:#FAB696;" d="M500.003,469.75v1c-19.8,3.01-44.86,4.69-72.11,4.69c-56.74,0-122.99-7.29-171.15-25.08
			c-42.17-15.57-112.3-17.99-163.71-17.26c-40.47,0.57-75.17,3.07-93.03,4.76v-1c18.3-1.73,53.45-4.19,92.56-4.75
			c51.65-0.75,122.12,1.65,164.52,17.31C328.323,475.74,439.193,479.03,500.003,469.75z"/>
	</g>
	<g>
		<path style="fill:none;stroke:#2B305D;stroke-width:3;stroke-linecap:round;stroke-miterlimit:10;" d="M103.254,445.578
			l96.643,7.07c5.559,0.407,10.812,2.697,14.893,6.493l9.113,8.477"/>
		<path style="fill:none;stroke:#2B305D;stroke-width:3;stroke-linecap:round;stroke-miterlimit:10;" d="M216.351,445.342
			l-96.643,7.07c-5.558,0.407-10.812,2.697-14.893,6.493l-9.113,8.477"/>
		<g>
			
				<ellipse transform="matrix(0.2273 -0.9738 0.9738 0.2273 -337.3675 471.1373)" style="opacity:0.35;fill:#FFFFFF;" cx="128.19" cy="448.151" rx="25.55" ry="25.55"/>
			
				<ellipse transform="matrix(0.1589 -0.9873 0.9873 0.1589 -281.0489 566.3969)" style="opacity:0.35;fill:#FFFFFF;" cx="191.904" cy="448.151" rx="25.55" ry="25.55"/>
		</g>
		<circle style="fill:none;stroke:#2B305D;stroke-width:3;stroke-miterlimit:10;" cx="128.19" cy="448.342" r="25.55"/>
		<circle style="fill:none;stroke:#2B305D;stroke-width:3;stroke-miterlimit:10;" cx="191.904" cy="448.342" r="25.55"/>
	</g>
	<g>
		<g>
			<rect x="134.329" y="281.237" style="fill:#E16F61;" width="247.361" height="134.128"/>
			<rect x="141.841" y="312.399" style="fill:#C96357;" width="229.897" height="65.412"/>
			<g>
				<g>
					<path style="fill:#E16F61;" d="M385.026,415.385c-47.981-0.009-249.725-0.017-250.699-0.017h-1.034
						c-4.885,0-8.353-4.746-6.893-9.396l5.25-16.654l0.278-0.869l3.842-12.186h245.805l4.233,12.186l0.304,0.869l5.728,16.472
						C393.475,410.483,389.998,415.385,385.026,415.385z"/>
				</g>
				<path style="fill:#8C8DA3;" d="M140.58,282.424v-18.607l-27.246-15.285h-21.93v19.936h8.639v-14.62h10.633l23.866,12.965v14.343
					C134.541,281.157,140.58,282.906,140.58,282.424z"/>
				<rect x="149.181" y="268.591" style="fill:#9A9CB4;" width="216.526" height="2.641"/>
				<rect x="160.311" y="268.819" style="fill:#8C8DA3;" width="10.896" height="13.532"/>
				<rect x="342.749" y="268.819" style="fill:#8C8DA3;" width="10.896" height="13.532"/>
				<rect x="363.067" y="264.984" style="fill:#8C8DA3;" width="6.195" height="17.368"/>
				<rect x="146.562" y="264.984" style="fill:#8C8DA3;" width="6.195" height="17.368"/>
				<path style="fill:#C96357;" d="M296.046,281.237c-2.364,10.97-19.088,19.47-39.367,19.47c-20.287,0-37.011-8.501-39.375-19.47
					H296.046z"/>
				<rect x="175.56" y="266.512" style="fill:#2B305D;" width="9.841" height="5.599"/>
				<rect x="328.608" y="266.512" style="fill:#2B305D;" width="9.841" height="5.599"/>
				<rect x="214.127" y="374.45" style="fill:#FFFFFF;" width="89.57" height="5.863"/>
				<line style="fill:none;stroke:#2B305D;stroke-miterlimit:10;" x1="178.218" y1="314.054" x2="178.218" y2="321.803"/>
				<line style="fill:none;stroke:#2B305D;stroke-miterlimit:10;" x1="200.582" y1="314.054" x2="200.582" y2="321.803"/>
				<line style="fill:none;stroke:#2B305D;stroke-miterlimit:10;" x1="222.946" y1="314.054" x2="222.946" y2="321.803"/>
				<line style="fill:none;stroke:#2B305D;stroke-miterlimit:10;" x1="245.31" y1="314.054" x2="245.31" y2="321.803"/>
				<line style="fill:none;stroke:#2B305D;stroke-miterlimit:10;" x1="267.674" y1="314.054" x2="267.674" y2="321.803"/>
				<line style="fill:none;stroke:#2B305D;stroke-miterlimit:10;" x1="290.037" y1="314.054" x2="290.037" y2="321.803"/>
				<line style="fill:none;stroke:#2B305D;stroke-miterlimit:10;" x1="312.401" y1="314.054" x2="312.401" y2="321.803"/>
				<line style="fill:none;stroke:#2B305D;stroke-miterlimit:10;" x1="334.765" y1="314.054" x2="334.765" y2="321.803"/>
				<line style="fill:none;stroke:#2B305D;stroke-miterlimit:10;" x1="166.441" y1="328.449" x2="166.441" y2="336.198"/>
				<line style="fill:none;stroke:#2B305D;stroke-miterlimit:10;" x1="188.804" y1="328.449" x2="188.804" y2="336.198"/>
				<line style="fill:none;stroke:#2B305D;stroke-miterlimit:10;" x1="211.168" y1="328.449" x2="211.168" y2="336.198"/>
				<line style="fill:none;stroke:#2B305D;stroke-miterlimit:10;" x1="233.532" y1="328.449" x2="233.532" y2="336.198"/>
				<line style="fill:none;stroke:#2B305D;stroke-miterlimit:10;" x1="255.896" y1="328.449" x2="255.896" y2="336.198"/>
				<line style="fill:none;stroke:#2B305D;stroke-miterlimit:10;" x1="278.26" y1="328.449" x2="278.26" y2="336.198"/>
				<line style="fill:none;stroke:#2B305D;stroke-miterlimit:10;" x1="300.624" y1="328.449" x2="300.624" y2="336.198"/>
				<line style="fill:none;stroke:#2B305D;stroke-miterlimit:10;" x1="322.987" y1="328.449" x2="322.987" y2="336.198"/>
				<line style="fill:none;stroke:#2B305D;stroke-miterlimit:10;" x1="344.789" y1="328.449" x2="344.789" y2="336.198"/>
				<line style="fill:none;stroke:#2B305D;stroke-miterlimit:10;" x1="178.218" y1="345.735" x2="178.218" y2="353.484"/>
				<line style="fill:none;stroke:#2B305D;stroke-miterlimit:10;" x1="200.582" y1="345.735" x2="200.582" y2="353.484"/>
				<line style="fill:none;stroke:#2B305D;stroke-miterlimit:10;" x1="222.946" y1="345.735" x2="222.946" y2="353.484"/>
				<line style="fill:none;stroke:#2B305D;stroke-miterlimit:10;" x1="245.31" y1="345.735" x2="245.31" y2="353.484"/>
				<line style="fill:none;stroke:#2B305D;stroke-miterlimit:10;" x1="267.674" y1="345.735" x2="267.674" y2="353.484"/>
				<line style="fill:none;stroke:#2B305D;stroke-miterlimit:10;" x1="290.037" y1="345.735" x2="290.037" y2="353.484"/>
				<line style="fill:none;stroke:#2B305D;stroke-miterlimit:10;" x1="312.401" y1="345.735" x2="312.401" y2="353.484"/>
				<line style="fill:none;stroke:#2B305D;stroke-miterlimit:10;" x1="334.765" y1="345.735" x2="334.765" y2="353.484"/>
				<line style="fill:none;stroke:#2B305D;stroke-miterlimit:10;" x1="166.441" y1="360.13" x2="166.441" y2="367.879"/>
				<line style="fill:none;stroke:#2B305D;stroke-miterlimit:10;" x1="188.804" y1="360.13" x2="188.804" y2="367.879"/>
				<line style="fill:none;stroke:#2B305D;stroke-miterlimit:10;" x1="211.168" y1="360.13" x2="211.168" y2="367.879"/>
				<line style="fill:none;stroke:#2B305D;stroke-miterlimit:10;" x1="233.532" y1="360.13" x2="233.532" y2="367.879"/>
				<line style="fill:none;stroke:#2B305D;stroke-miterlimit:10;" x1="255.896" y1="360.13" x2="255.896" y2="367.879"/>
				<line style="fill:none;stroke:#2B305D;stroke-miterlimit:10;" x1="278.26" y1="360.13" x2="278.26" y2="367.879"/>
				<line style="fill:none;stroke:#2B305D;stroke-miterlimit:10;" x1="300.624" y1="360.13" x2="300.624" y2="367.879"/>
				<line style="fill:none;stroke:#2B305D;stroke-miterlimit:10;" x1="322.987" y1="360.13" x2="322.987" y2="367.879"/>
				<line style="fill:none;stroke:#2B305D;stroke-miterlimit:10;" x1="344.789" y1="360.13" x2="344.789" y2="367.879"/>
				<g>
					<rect x="171.191" y="310.627" style="fill:#FFFFFF;" width="14.116" height="6.258"/>
					<rect x="193.512" y="310.627" style="fill:#FFFFFF;" width="14.107" height="6.258"/>
					<rect x="215.825" y="310.627" style="fill:#FFFFFF;" width="14.116" height="6.258"/>
					<rect x="238.138" y="310.627" style="fill:#FFFFFF;" width="14.116" height="6.258"/>
					<rect x="260.451" y="310.627" style="fill:#FFFFFF;" width="14.116" height="6.258"/>
					<rect x="282.763" y="310.627" style="fill:#FFFFFF;" width="14.116" height="6.258"/>
					<rect x="305.085" y="310.627" style="fill:#FFFFFF;" width="14.107" height="6.258"/>
					<rect x="327.397" y="310.627" style="fill:#FFFFFF;" width="14.116" height="6.258"/>
				</g>
				<g>
					<rect x="159.419" y="326.166" style="fill:#FFFFFF;" width="14.116" height="6.258"/>
					<rect x="181.74" y="326.166" style="fill:#FFFFFF;" width="14.107" height="6.258"/>
					<rect x="204.053" y="326.166" style="fill:#FFFFFF;" width="14.116" height="6.258"/>
					<rect x="226.366" y="326.166" style="fill:#FFFFFF;" width="14.116" height="6.258"/>
					<rect x="248.679" y="326.166" style="fill:#FFFFFF;" width="14.116" height="6.258"/>
					<rect x="270.991" y="326.166" style="fill:#FFFFFF;" width="14.116" height="6.258"/>
					<rect x="293.313" y="326.166" style="fill:#FFFFFF;" width="14.107" height="6.258"/>
					<rect x="315.625" y="326.166" style="fill:#FFFFFF;" width="14.116" height="6.258"/>
					<rect x="337.716" y="326.166" style="fill:#FFFFFF;" width="14.116" height="6.258"/>
				</g>
				<g>
					<rect x="171.191" y="343.02" style="fill:#FFFFFF;" width="14.116" height="6.258"/>
					<rect x="193.512" y="343.02" style="fill:#FFFFFF;" width="14.107" height="6.258"/>
					<rect x="215.825" y="343.02" style="fill:#FFFFFF;" width="14.116" height="6.258"/>
					<rect x="238.138" y="343.02" style="fill:#FFFFFF;" width="14.116" height="6.258"/>
					<rect x="260.451" y="343.02" style="fill:#FFFFFF;" width="14.116" height="6.258"/>
					<rect x="282.763" y="343.02" style="fill:#FFFFFF;" width="14.116" height="6.258"/>
					<rect x="305.085" y="343.02" style="fill:#FFFFFF;" width="14.107" height="6.258"/>
					<rect x="327.397" y="343.02" style="fill:#FFFFFF;" width="14.116" height="6.258"/>
				</g>
				<g>
					<rect x="159.419" y="358.559" style="fill:#FFFFFF;" width="14.116" height="6.258"/>
					<rect x="181.74" y="358.559" style="fill:#FFFFFF;" width="14.107" height="6.258"/>
					<rect x="204.053" y="358.559" style="fill:#FFFFFF;" width="14.116" height="6.258"/>
					<rect x="226.366" y="358.559" style="fill:#FFFFFF;" width="14.116" height="6.258"/>
					<rect x="248.679" y="358.559" style="fill:#FFFFFF;" width="14.116" height="6.258"/>
					<rect x="270.991" y="358.559" style="fill:#FFFFFF;" width="14.116" height="6.258"/>
					<rect x="293.313" y="358.559" style="fill:#FFFFFF;" width="14.107" height="6.258"/>
					<rect x="315.625" y="358.559" style="fill:#FFFFFF;" width="14.116" height="6.258"/>
					<rect x="337.716" y="358.559" style="fill:#FFFFFF;" width="14.116" height="6.258"/>
				</g>
				<g>
					<polygon style="fill:#C96357;" points="386.113,389.317 131.65,389.317 131.928,388.448 385.809,388.448 					"/>
				</g>
			</g>
		</g>
		<rect x="134.536" y="280.943" style="fill:#E16F61;" width="246.768" height="6.338"/>
	</g>
	<g>
		<g>
			<g>
				<g>
					<path style="fill:#FAF8F7;" d="M435.558,369.906v30.63c0,19.72-14.77,36.71-34.41,38.52c-4.58,0.43-9.02,0.02-13.19-1.07
						c-16.3-4.27-28.32-19.08-28.32-36.72v-31.36c0-3.78,3.07-6.85,6.85-6.85h62.22
						C432.488,363.056,435.558,366.126,435.558,369.906z"/>
				</g>
				<g>
					<path style="fill:#FAF8F7;" d="M436.548,414.428c-12.197,0-22.121-9.924-22.121-22.121c0-12.197,9.924-22.12,22.121-22.12
						c12.197,0,22.12,9.923,22.12,22.12C458.669,404.504,448.746,414.428,436.548,414.428z M436.548,376.187
						c-8.89,0-16.121,7.231-16.121,16.12c0,8.89,7.232,16.121,16.121,16.121c8.889,0,16.12-7.231,16.12-16.121
						C452.669,383.418,445.437,376.187,436.548,376.187z"/>
				</g>
				<g>
					<path style="fill:#FFFFFF;" d="M416.268,363.056v38.21c0,17.63-12.01,32.45-28.31,36.72c-16.3-4.27-28.32-19.08-28.32-36.72
						v-31.36c0-3.78,3.07-6.85,6.85-6.85H416.268z"/>
				</g>
			</g>
			<g>
				<path style="fill:#FAF8F7;" d="M443.284,443.681h-86.33c-1.657,0-3-1.343-3-3c0-1.657,1.343-3,3-3h86.33c1.657,0,3,1.343,3,3
					C446.284,442.338,444.941,443.681,443.284,443.681z"/>
			</g>
		</g>
	</g>
	<ellipse style="fill:none;stroke:#FAB696;stroke-miterlimit:10;" cx="53.767" cy="449.434" rx="13.513" ry="5.167"/>
	<g>
		<path style="fill:#FAB696;" d="M496.213,449.32c1.34,0,2.61,0.07,3.79,0.21v-1.01c-1.2-0.13-2.47-0.2-3.79-0.2
			c-7.86,0-14.02,2.49-14.02,5.67c0,3.18,6.16,5.67,14.02,5.67c1.32,0,2.59-0.07,3.79-0.2v-1.01c-1.18,0.14-2.45,0.21-3.79,0.21
			c-7.79,0-13.02-2.42-13.02-4.67S488.423,449.32,496.213,449.32z"/>
	</g>
</g>
</svg>
